<?xml version="1.0" encoding="UTF-8" standalone="no"?>
<!-- Created with Inkscape (http://www.inkscape.org/) -->

<svg
   xmlns:dc="http://purl.org/dc/elements/1.1/"
   xmlns:cc="http://creativecommons.org/ns#"
   xmlns:rdf="http://www.w3.org/1999/02/22-rdf-syntax-ns#"
   xmlns:svg="http://www.w3.org/2000/svg"
   xmlns="http://www.w3.org/2000/svg"
   xmlns:sodipodi="http://sodipodi.sourceforge.net/DTD/sodipodi-0.dtd"
   xmlns:inkscape="http://www.inkscape.org/namespaces/inkscape"
   id="svg3336"
   version="1.1"
   inkscape:version="0.91 r13725"
   xml:space="preserve"
   width="739.6875"
   height="333.32385"
   viewBox="0 0 739.6875 333.32385"
   sodipodi:docname="Why We Refactor Confessions of GitHub Contributors.svg"><metadata
     id="metadata3342"><rdf:RDF><cc:Work
         rdf:about=""><dc:format>image/svg+xml</dc:format><dc:type
           rdf:resource="http://purl.org/dc/dcmitype/StillImage" /><dc:title></dc:title></cc:Work></rdf:RDF></metadata><defs
     id="defs3340"><clipPath
       clipPathUnits="userSpaceOnUse"
       id="clipPath3390"><path
         d="m 10,36 592,0 0,730 -592,0 0,-730 z"
         id="path3392"
         inkscape:connector-curvature="0" /></clipPath><clipPath
       clipPathUnits="userSpaceOnUse"
       id="clipPath3410"><path
         d="m 10,36 592,0 0,730 -592,0 0,-730 z"
         id="path3412"
         inkscape:connector-curvature="0" /></clipPath><clipPath
       clipPathUnits="userSpaceOnUse"
       id="clipPath3430"><path
         d="m 10,36 592,0 0,730 -592,0 0,-730 z"
         id="path3432"
         inkscape:connector-curvature="0" /></clipPath><clipPath
       clipPathUnits="userSpaceOnUse"
       id="clipPath3450"><path
         d="m 10,36 592,0 0,730 -592,0 0,-730 z"
         id="path3452"
         inkscape:connector-curvature="0" /></clipPath><clipPath
       clipPathUnits="userSpaceOnUse"
       id="clipPath3466"><path
         d="m 10,36 592,0 0,730 -592,0 0,-730 z"
         id="path3468"
         inkscape:connector-curvature="0" /></clipPath><clipPath
       clipPathUnits="userSpaceOnUse"
       id="clipPath3486"><path
         d="m 10,36 592,0 0,730 -592,0 0,-730 z"
         id="path3488"
         inkscape:connector-curvature="0" /></clipPath><clipPath
       clipPathUnits="userSpaceOnUse"
       id="clipPath3506"><path
         d="m 487.75,542.25 34.501,0 0,14.25 -34.501,0 0,-14.25 z"
         id="path3508"
         inkscape:connector-curvature="0" /></clipPath><clipPath
       clipPathUnits="userSpaceOnUse"
       id="clipPath3522"><path
         d="m 51.25,527.25 238.5,0 0,14.251 -238.5,0 0,-14.251 z"
         id="path3524"
         inkscape:connector-curvature="0" /></clipPath><clipPath
       clipPathUnits="userSpaceOnUse"
       id="clipPath3542"><path
         d="m 10,36 592,0 0,730 -592,0 0,-730 z"
         id="path3544"
         inkscape:connector-curvature="0" /></clipPath><clipPath
       clipPathUnits="userSpaceOnUse"
       id="clipPath3562"><path
         d="m 10,36 592,0 0,730 -592,0 0,-730 z"
         id="path3564"
         inkscape:connector-curvature="0" /></clipPath><clipPath
       clipPathUnits="userSpaceOnUse"
       id="clipPath3606"><path
         d="m 10,36 592,0 0,730 -592,0 0,-730 z"
         id="path3608"
         inkscape:connector-curvature="0" /></clipPath><clipPath
       clipPathUnits="userSpaceOnUse"
       id="clipPath3626"><path
         d="m 487.75,362.25 34.501,0 0,14.25 -34.501,0 0,-14.25 z"
         id="path3628"
         inkscape:connector-curvature="0" /></clipPath><clipPath
       clipPathUnits="userSpaceOnUse"
       id="clipPath3642"><path
         d="m 51.25,347.25 238.5,0 0,14.251 -238.5,0 0,-14.251 z"
         id="path3644"
         inkscape:connector-curvature="0" /></clipPath><clipPath
       clipPathUnits="userSpaceOnUse"
       id="clipPath3662"><path
         d="m 10,36 592,0 0,730 -592,0 0,-730 z"
         id="path3664"
         inkscape:connector-curvature="0" /></clipPath><clipPath
       clipPathUnits="userSpaceOnUse"
       id="clipPath3682"><path
         d="m 10,36 592,0 0,730 -592,0 0,-730 z"
         id="path3684"
         inkscape:connector-curvature="0" /></clipPath><clipPath
       clipPathUnits="userSpaceOnUse"
       id="clipPath3706"><path
         d="m 10,36 592,0 0,730 -592,0 0,-730 z"
         id="path3708"
         inkscape:connector-curvature="0" /></clipPath><clipPath
       clipPathUnits="userSpaceOnUse"
       id="clipPath3726"><path
         d="m 10,36 592,0 0,730 -592,0 0,-730 z"
         id="path3728"
         inkscape:connector-curvature="0" /></clipPath><clipPath
       clipPathUnits="userSpaceOnUse"
       id="clipPath3746"><path
         d="m 10,36 592,0 0,730 -592,0 0,-730 z"
         id="path3748"
         inkscape:connector-curvature="0" /></clipPath><clipPath
       clipPathUnits="userSpaceOnUse"
       id="clipPath3792"><path
         d="m 10,36 592,0 0,730 -592,0 0,-730 z"
         id="path3794"
         inkscape:connector-curvature="0" /></clipPath><clipPath
       clipPathUnits="userSpaceOnUse"
       id="clipPath3808"><path
         d="m 424,708.75 99,0 0,11.25 -99,0 0,-11.25 z"
         id="path3810"
         inkscape:connector-curvature="0" /></clipPath><clipPath
       clipPathUnits="userSpaceOnUse"
       id="clipPath3824"><path
         d="m 424,693.75 69,0 0,11.25 -69,0 0,-11.25 z"
         id="path3826"
         inkscape:connector-curvature="0" /></clipPath><clipPath
       clipPathUnits="userSpaceOnUse"
       id="clipPath3844"><path
         d="m 10,36 592,0 0,730 -592,0 0,-730 z"
         id="path3846"
         inkscape:connector-curvature="0" /></clipPath><clipPath
       clipPathUnits="userSpaceOnUse"
       id="clipPath3860"><path
         d="m 10,36 592,0 0,730 -592,0 0,-730 z"
         id="path3862"
         inkscape:connector-curvature="0" /></clipPath><clipPath
       clipPathUnits="userSpaceOnUse"
       id="clipPath3876"><path
         d="m 10,36 592,0 0,730 -592,0 0,-730 z"
         id="path3878"
         inkscape:connector-curvature="0" /></clipPath></defs><sodipodi:namedview
     pagecolor="#ffffff"
     bordercolor="#666666"
     borderopacity="1"
     objecttolerance="10"
     gridtolerance="10"
     guidetolerance="10"
     inkscape:pageopacity="0"
     inkscape:pageshadow="2"
     inkscape:window-width="1920"
     inkscape:window-height="1137"
     id="namedview3338"
     showgrid="false"
     inkscape:zoom="1.22"
     inkscape:cx="370"
     inkscape:cy="43.020005"
     inkscape:window-x="1912"
     inkscape:window-y="-8"
     inkscape:window-maximized="1"
     inkscape:current-layer="g3344"
     fit-margin-top="0"
     fit-margin-left="0"
     fit-margin-right="0"
     fit-margin-bottom="0" /><g
     id="g3344"
     inkscape:groupmode="layer"
     inkscape:label="Why We Refactor Confessions of GitHub Contributors"
     transform="matrix(1.25,0,0,-1.25,-12.5,957.1875)"><path
       d="m 10,499.09092 591.75,0 0,266.65908 -591.75,0 0,-266.65908 z"
       style="fill:#ffffff;fill-opacity:1;fill-rule:nonzero;stroke:none"
       id="path3352"
       inkscape:connector-curvature="0" /><path
       d="m 21.25,705.75 569.25,0 0,0.75 -569.25,0 0,-0.75 z"
       style="fill:#efefef;fill-opacity:1;fill-rule:nonzero;stroke:none"
       id="path3354"
       inkscape:connector-curvature="0" /><path
       d="m 21.25,638.25 569.25,0 0,0.75 -569.25,0 0,-0.75 z"
       style="fill:#efefef;fill-opacity:1;fill-rule:nonzero;stroke:none"
       id="path3356"
       inkscape:connector-curvature="0" /><path
       d="m 21.25,495.75 569.25,0 0,0.751 -569.25,0 0,-0.751 z"
       style="fill:#efefef;fill-opacity:1;fill-rule:nonzero;stroke:none"
       id="path3358"
       inkscape:connector-curvature="0" /><text
       transform="matrix(1,0,0,-1,21.25,746.25)"
       style="font-variant:normal;font-weight:bold;font-stretch:normal;font-size:13.5px;font-family:Arial;-inkscape-font-specification:Arial-BoldMT;writing-mode:lr-tb;fill:#303030;fill-opacity:1;fill-rule:nonzero;stroke:none"
       id="text3362"><tspan
         x="0 8.2484999 15.7545 24.003 31.509001"
         y="0"
         sodipodi:role="line"
         id="tspan3364">neo4j</tspan></text>
<text
       transform="matrix(1,0,0,-1,60.265,746.25)"
       style="font-variant:normal;font-weight:bold;font-stretch:normal;font-size:13.5px;font-family:Arial;-inkscape-font-specification:Arial-BoldMT;writing-mode:lr-tb;fill:#337ab7;fill-opacity:1;fill-rule:nonzero;stroke:none"
       id="text3366"><tspan
         x="0 8.2484999 15.7545 23.2605 30.7665 38.272499 45.7785"
         y="0"
         sodipodi:role="line"
         id="tspan3368">b83e6a5</tspan></text>
<text
       transform="matrix(1,0,0,-1,21.25,726)"
       style="font-variant:normal;font-weight:normal;font-stretch:normal;font-size:10.5px;font-family:Arial;-inkscape-font-specification:ArialMT;writing-mode:lr-tb;fill:#303030;fill-opacity:1;fill-rule:nonzero;stroke:none"
       id="text3370"><tspan
         x="0 7.0035 12.8415 15.7605 21.598499 27.436501 30.933001 36.771 42.609001 45.528 51.366001 56.616001 59.535 68.281502 74.119499 77.038498 82.288498 85.207497 92.788498 98.038498 103.8765 109.7145 115.5525 119.049 124.887 127.806 130.72501 138.306 144.144 152.8905 161.63699 163.968 166.88699 169.806 175.644 181.48199 184.401 190.239 193.158 196.08749 201.92551 204.8445 210.6825 216.52049 219.4395 225.2775 231.11549 234.0345 239.8725 242.7915 248.6295 254.4675 257.38651 264.39001"
         y="0"
         sodipodi:role="line"
         id="tspan3372">Authored by Mats Rydberg, Committed at 6/18/15 7:27 AM</tspan></text>
<text
       transform="matrix(1,0,0,-1,21.25,678.75)"
       style="font-variant:normal;font-weight:normal;font-stretch:normal;font-size:13.5px;font-family:Arial;-inkscape-font-specification:ArialMT;writing-mode:lr-tb;fill:#303030;fill-opacity:1;fill-rule:nonzero;stroke:none"
       id="text3374"><tspan
         x="0 9.7469997 17.253 28.498501 39.743999 42.741001 46.493999 50.247002 61.4925 68.998497 75.748497 82.498497 90.004501 97.510498"
         y="0"
         sodipodi:role="line"
         id="tspan3376">Commit Message</tspan></text>
<text
       transform="matrix(1,0,0,-1,21.25,658.5)"
       style="font-variant:normal;font-weight:normal;font-stretch:normal;font-size:10.5px;font-family:Arial;-inkscape-font-specification:ArialMT;writing-mode:lr-tb;fill:#303030;fill-opacity:1;fill-rule:nonzero;stroke:none"
       id="text3378"><tspan
         x="0 2.9189999 11.6655 17.5035 19.834499 25.672501 34.418999 40.257 46.095001 49.014 51.932999 54.264 60.102001 65.940002 71.778 77.028 79.946999 85.785004 89.281502 95.119499 98.038498 100.3695 105.6195 108.5385 113.7885 119.6265 125.4645 128.961 134.211 140.049 142.968 145.88699 151.72501 155.2215 158.1405 160.4715 166.30949 171.55949 177.39751 183.2355 189.0735 191.99249 194.3235 200.1615 205.9995 208.33051 213.58051 219.4185"
         y="0"
         sodipodi:role="line"
         id="tspan3380">Implement index prefix search for lucene indices</tspan></text>
<text
       transform="matrix(1,0,0,-1,21.25,611.25)"
       style="font-variant:normal;font-weight:normal;font-stretch:normal;font-size:13.5px;font-family:Arial;-inkscape-font-specification:ArialMT;writing-mode:lr-tb;fill:#303030;fill-opacity:1;fill-rule:nonzero;stroke:none"
       id="text3382"><tspan
         x="0 9.7469997 17.253 21.006001 28.511999 35.262001 39.014999 46.521 51.016499 54.0135 61.519501 69.025497"
         y="0"
         sodipodi:role="line"
         id="tspan3384">Refactorings</tspan></text>
<g
       id="g3386"><g
         id="g3388"
         clip-path="url(#clipPath3390)"><g
           id="g3394"
           transform="translate(43,594)"><path
             d="m 0,0 c 0,2 -3,2 -3,0 0,-2 3,-2 3,0"
             style="fill:#303030;fill-opacity:1;fill-rule:nonzero;stroke:none"
             id="path3396"
             inkscape:connector-curvature="0" /></g><g
           id="g3398"
           transform="translate(43,594)"><path
             d="m 0,0 c 0,2 -3,2 -3,0 0,-2 3,-2 3,0 z"
             style="fill:none;stroke:#303030;stroke-width:0.75;stroke-linecap:butt;stroke-linejoin:miter;stroke-miterlimit:10;stroke-dasharray:none;stroke-opacity:1"
             id="path3400"
             inkscape:connector-curvature="0" /></g></g></g><text
       transform="matrix(1,0,0,-1,51.25,591)"
       style="font-variant:normal;font-weight:bold;font-stretch:normal;font-size:10.5px;font-family:Arial;-inkscape-font-specification:Arial-BoldMT;writing-mode:lr-tb;fill:#303030;fill-opacity:1;fill-rule:nonzero;stroke:none"
       id="text3402"><tspan
         x="0 7.0035 12.8415 16.337999 20.422501 26.2605 32.098499 35.595001 38.514 45.517502 51.932999 58.348499 64.186501 68.271004 74.109001 77.028 82.865997 88.704002"
         y="0"
         sodipodi:role="line"
         id="tspan3404">Extract Superclass</tspan></text>
<g
       id="g3406"><g
         id="g3408"
         clip-path="url(#clipPath3410)"><g
           id="g3414"
           transform="translate(151.75,601.5)"><path
             d="m 0,0 369.75,0 c 1.657,0 3,-1.343 3,-3 l 0,-8.25 c 0,-1.657 -1.343,-3 -3,-3 L 0,-14.25 c -1.657,0 -3,1.343 -3,3 L -3,-3 c 0,1.657 1.343,3 3,3"
             style="fill:#f9f2f4;fill-opacity:1;fill-rule:nonzero;stroke:none"
             id="path3416"
             inkscape:connector-curvature="0" /></g></g></g><text
       transform="matrix(1,0,0,-1,151.7185,591)"
       style="font-variant:normal;font-weight:normal;font-stretch:normal;font-size:9.75px;font-family:Consolas;-inkscape-font-specification:Consolas;writing-mode:lr-tb;fill:#c7254e;fill-opacity:1;fill-rule:nonzero;stroke:none"
       id="text3418"><tspan
         x="0 5.3625002 10.725 16.0875 21.450001 26.8125 32.174999 37.537498 42.900002 48.262501 53.625 58.987499 64.349998 69.712502 75.074997 80.4375 85.800003 91.162498 96.525002 101.8875 107.25 112.6125 117.975 123.3375 128.7 134.0625 139.425 144.78751 150.14999 155.5125 160.875 166.2375 171.60001 176.96249 182.325 187.6875 193.05 198.41251 203.77499 209.1375 214.5 219.8625 225.22501 230.58749 235.95 241.3125 246.675 252.03751 257.39999 262.76251 268.125 273.48749 278.85001 284.21249 289.57501 294.9375 300.29999 305.66251 311.02499 316.38751 321.75 327.11249 332.47501 337.83749 343.20001 348.5625 353.92499 359.28751 364.64999"
         y="0"
         sodipodi:role="line"
         id="tspan3420">org.neo4j.kernel.api.impl.index.AbstractLuceneIndexAccessorReaderTest</tspan></text>
<text
       transform="matrix(1,0,0,-1,527.5186,591)"
       style="font-variant:normal;font-weight:normal;font-stretch:normal;font-size:10.5px;font-family:Arial;-inkscape-font-specification:ArialMT;writing-mode:lr-tb;fill:#303030;fill-opacity:1;fill-rule:nonzero;stroke:none"
       id="text3422"><tspan
         x="0 2.9189999 6.4155002 12.2535 21 23.919001 29.169001 31.5 37.338001 42.588001 47.838001 53.675999"
         y="0"
         sodipodi:role="line"
         id="tspan3424">from classes</tspan></text>
<g
       id="g3426"><g
         id="g3428"
         clip-path="url(#clipPath3430)"><g
           id="g3434"
           transform="translate(54.25,586.5)"><path
             d="m 0,0 327,0 c 1.657,0 3,-1.343 3,-3 l 0,-8.25 c 0,-1.657 -1.343,-3 -3,-3 l -327,0 c -1.657,0 -3,1.343 -3,3 L -3,-3 c 0,1.657 1.343,3 3,3"
             style="fill:#f9f2f4;fill-opacity:1;fill-rule:nonzero;stroke:none"
             id="path3436"
             inkscape:connector-curvature="0" /></g></g></g><text
       transform="matrix(1,0,0,-1,54.25,576)"
       style="font-variant:normal;font-weight:normal;font-stretch:normal;font-size:9.75px;font-family:Consolas;-inkscape-font-specification:Consolas;writing-mode:lr-tb;fill:#c7254e;fill-opacity:1;fill-rule:nonzero;stroke:none"
       id="text3438"><tspan
         x="0 5.3625002 10.725 16.0875 21.450001 26.8125 32.174999 37.537498 42.900002 48.262501 53.625 58.987499 64.349998 69.712502 75.074997 80.4375 85.800003 91.162498 96.525002 101.8875 107.25 112.6125 117.975 123.3375 128.7 134.0625 139.425 144.78751 150.14999 155.5125 160.875 166.2375 171.60001 176.96249 182.325 187.6875 193.05 198.41251 203.77499 209.1375 214.5 219.8625 225.22501 230.58749 235.95 241.3125 246.675 252.03751 257.39999 262.76251 268.125 273.48749 278.85001 284.21249 289.57501 294.9375 300.29999 305.66251 311.02499 316.38751 321.75"
         y="0"
         sodipodi:role="line"
         id="tspan3440">org.neo4j.kernel.api.impl.index.LuceneIndexAccessorReaderTest</tspan></text>
<text
       transform="matrix(1,0,0,-1,387.1653,576)"
       style="font-variant:normal;font-weight:normal;font-stretch:normal;font-size:10.5px;font-family:Arial;-inkscape-font-specification:ArialMT;writing-mode:lr-tb;fill:#303030;fill-opacity:1;fill-rule:nonzero;stroke:none"
       id="text3442"><tspan
         x="0 5.8379998 11.676"
         y="0"
         sodipodi:role="line"
         id="tspan3444">and</tspan></text>
<g
       id="g3446"><g
         id="g3448"
         clip-path="url(#clipPath3450)"><g
           id="g3454"
           transform="translate(54.25,571.5)"><path
             d="m 0,0 359.25,0 c 1.657,0 3,-1.343 3,-3 l 0,-8.25 c 0,-1.657 -1.343,-3 -3,-3 L 0,-14.25 c -1.657,0 -3,1.343 -3,3 L -3,-3 c 0,1.657 1.343,3 3,3"
             style="fill:#f9f2f4;fill-opacity:1;fill-rule:nonzero;stroke:none"
             id="path3456"
             inkscape:connector-curvature="0" /></g></g></g><text
       transform="matrix(1,0,0,-1,54.25,561)"
       style="font-variant:normal;font-weight:normal;font-stretch:normal;font-size:9.75px;font-family:Consolas;-inkscape-font-specification:Consolas;writing-mode:lr-tb;fill:#c7254e;fill-opacity:1;fill-rule:nonzero;stroke:none"
       id="text3458"><tspan
         x="0 5.3625002 10.725 16.0875 21.450001 26.8125 32.174999 37.537498 42.900002 48.262501 53.625 58.987499 64.349998 69.712502 75.074997 80.4375 85.800003 91.162498 96.525002 101.8875 107.25 112.6125 117.975 123.3375 128.7 134.0625 139.425 144.78751 150.14999 155.5125 160.875 166.2375 171.60001 176.96249 182.325 187.6875 193.05 198.41251 203.77499 209.1375 214.5 219.8625 225.22501 230.58749 235.95 241.3125 246.675 252.03751 257.39999 262.76251 268.125 273.48749 278.85001 284.21249 289.57501 294.9375 300.29999 305.66251 311.02499 316.38751 321.75 327.11249 332.47501 337.83749 343.20001 348.5625 353.92499"
         y="0"
         sodipodi:role="line"
         id="tspan3460">org.neo4j.kernel.api.impl.index.LuceneUniqueIndexAccessorReaderTest</tspan></text>
<g
       id="g3462"><g
         id="g3464"
         clip-path="url(#clipPath3466)"><g
           id="g3470"
           transform="translate(43,549)"><path
             d="m 0,0 c 0,2 -3,2 -3,0 0,-2 3,-2 3,0"
             style="fill:#303030;fill-opacity:1;fill-rule:nonzero;stroke:none"
             id="path3472"
             inkscape:connector-curvature="0" /></g><g
           id="g3474"
           transform="translate(43,549)"><path
             d="m 0,0 c 0,2 -3,2 -3,0 0,-2 3,-2 3,0 z"
             style="fill:none;stroke:#303030;stroke-width:0.75;stroke-linecap:butt;stroke-linejoin:miter;stroke-miterlimit:10;stroke-dasharray:none;stroke-opacity:1"
             id="path3476"
             inkscape:connector-curvature="0" /></g></g></g><text
       transform="matrix(1,0,0,-1,51.25,546)"
       style="font-variant:normal;font-weight:bold;font-stretch:normal;font-size:10.5px;font-family:Arial;-inkscape-font-specification:Arial-BoldMT;writing-mode:lr-tb;fill:#303030;fill-opacity:1;fill-rule:nonzero;stroke:none"
       id="text3478"><tspan
         x="0 7.0035 12.8415 16.337999 20.422501 26.2605 32.098499 35.595001 38.514 47.260502 53.098499 56.595001 63.010502 69.426003"
         y="0"
         sodipodi:role="line"
         id="tspan3480">Extract Method</tspan></text>
<g
       id="g3482"><g
         id="g3484"
         clip-path="url(#clipPath3486)"><g
           id="g3490"
           transform="translate(133,556.5)"><path
             d="m 0,0 279,0 c 1.657,0 3,-1.343 3,-3 l 0,-8.25 c 0,-1.657 -1.343,-3 -3,-3 l -279,0 c -1.657,0 -3,1.343 -3,3 L -3,-3 c 0,1.657 1.343,3 3,3"
             style="fill:#f9f2f4;fill-opacity:1;fill-rule:nonzero;stroke:none"
             id="path3492"
             inkscape:connector-curvature="0" /></g></g></g><text
       transform="matrix(1,0,0,-1,133.0103,546)"
       style="font-variant:normal;font-weight:normal;font-stretch:normal;font-size:9.75px;font-family:Consolas;-inkscape-font-specification:Consolas;writing-mode:lr-tb;fill:#c7254e;fill-opacity:1;fill-rule:nonzero;stroke:none"
       id="text3494"><tspan
         x="0 5.3625002 10.725 16.0875 21.450001 26.8125 32.174999 37.537498 42.900002 48.262501 53.625 58.987499 64.349998 69.712502 75.074997 80.4375 85.800003 91.162498 96.525002 101.8875 107.25 112.6125 117.975 123.3375 128.7 134.0625 139.425 144.78751 150.14999 155.5125 160.875 166.2375 171.60001 176.96249 182.325 187.6875 193.05 198.41251 203.77499 209.1375 214.5 219.8625 225.22501 230.58749 235.95 241.3125 246.675 252.03751 257.39999 262.76251 268.125 273.48749"
         y="0"
         sodipodi:role="line"
         id="tspan3496">protected query(query Query) : PrimitiveLongIterator</tspan></text>
<text
       transform="matrix(1,0,0,-1,417.6802,546)"
       style="font-variant:normal;font-weight:normal;font-stretch:normal;font-size:10.5px;font-family:Arial;-inkscape-font-specification:ArialMT;writing-mode:lr-tb;fill:#303030;fill-opacity:1;fill-rule:nonzero;stroke:none"
       id="text3498"><tspan
         x="0 5.8379998 11.088 14.007 17.5035 23.341499 28.591499 31.5105 37.348499 43.186501 46.105499 49.024502 52.521 58.359001 67.105499"
         y="0"
         sodipodi:role="line"
         id="tspan3500">extracted from </tspan></text>
<g
       id="g3502"><g
         id="g3504"
         clip-path="url(#clipPath3506)"><g
           id="g3510"
           transform="translate(490.75,556.5)"><path
             d="m 0,0 270,0 0,-14.25 -270,0 c -1.657,0 -3,1.343 -3,3 L -3,-3 c 0,1.657 1.343,3 3,3"
             style="fill:#f9f2f4;fill-opacity:1;fill-rule:nonzero;stroke:none"
             id="path3512"
             inkscape:connector-curvature="0" /></g></g></g><text
       transform="matrix(1,0,0,-1,490.7024,546)"
       style="font-variant:normal;font-weight:normal;font-stretch:normal;font-size:9.75px;font-family:Consolas;-inkscape-font-specification:Consolas;writing-mode:lr-tb;fill:#c7254e;fill-opacity:1;fill-rule:nonzero;stroke:none"
       id="text3514"><tspan
         x="0 5.3625002 10.725 16.0875 21.450001 26.8125"
         y="0"
         sodipodi:role="line"
         id="tspan3516">public</tspan></text>
<g
       id="g3518"><g
         id="g3520"
         clip-path="url(#clipPath3522)"><g
           id="g3526"
           transform="translate(16.75,541.5)"><path
             d="m 0,0 270,0 c 1.657,0 3,-1.343 3,-3 l 0,-8.25 c 0,-1.657 -1.343,-3 -3,-3 L 0,-14.25 0,0 Z"
             style="fill:#f9f2f4;fill-opacity:1;fill-rule:nonzero;stroke:none"
             id="path3528"
             inkscape:connector-curvature="0" /></g></g></g><text
       transform="matrix(1,0,0,-1,51.25,531)"
       style="font-variant:normal;font-weight:normal;font-stretch:normal;font-size:9.75px;font-family:Consolas;-inkscape-font-specification:Consolas;writing-mode:lr-tb;fill:#c7254e;fill-opacity:1;fill-rule:nonzero;stroke:none"
       id="text3530"><tspan
         x="0 5.3625002 10.725 16.0875 21.450001 26.8125 32.174999 37.537498 42.900002 48.262501 53.625 58.987499 64.349998 69.712502 75.074997 80.4375 85.800003 91.162498 96.525002 101.8875 107.25 112.6125 117.975 123.3375 128.7 134.0625 139.425 144.78751 150.14999 155.5125 160.875 166.2375 171.60001 176.96249 182.325 187.6875 193.05 198.41251 203.77499 209.1375 214.5 219.8625 225.22501 230.58749"
         y="0"
         sodipodi:role="line"
         id="tspan3532">lookup(value Object) : PrimitiveLongIterator</tspan></text>
<text
       transform="matrix(1,0,0,-1,293.0352,531)"
       style="font-variant:normal;font-weight:normal;font-stretch:normal;font-size:10.5px;font-family:Arial;-inkscape-font-specification:ArialMT;writing-mode:lr-tb;fill:#303030;fill-opacity:1;fill-rule:nonzero;stroke:none"
       id="text3534"><tspan
         x="0 5.8379998 11.676 17.514"
         y="0"
         sodipodi:role="line"
         id="tspan3536">and </tspan></text>
<g
       id="g3538"><g
         id="g3540"
         clip-path="url(#clipPath3542)"><g
           id="g3546"
           transform="translate(316.75,541.5)"><path
             d="m 0,0 198,0 c 1.657,0 3,-1.343 3,-3 l 0,-8.25 c 0,-1.657 -1.343,-3 -3,-3 l -198,0 c -1.657,0 -3,1.343 -3,3 L -3,-3 c 0,1.657 1.343,3 3,3"
             style="fill:#f9f2f4;fill-opacity:1;fill-rule:nonzero;stroke:none"
             id="path3548"
             inkscape:connector-curvature="0" /></g></g></g><text
       transform="matrix(1,0,0,-1,316.4695,531)"
       style="font-variant:normal;font-weight:normal;font-stretch:normal;font-size:9.75px;font-family:Consolas;-inkscape-font-specification:Consolas;writing-mode:lr-tb;fill:#c7254e;fill-opacity:1;fill-rule:nonzero;stroke:none"
       id="text3550"><tspan
         x="0 5.3625002 10.725 16.0875 21.450001 26.8125 32.174999 37.537498 42.900002 48.262501 53.625 58.987499 64.349998 69.712502 75.074997 80.4375 85.800003 91.162498 96.525002 101.8875 107.25 112.6125 117.975 123.3375 128.7 134.0625 139.425 144.78751 150.14999 155.5125 160.875 166.2375 171.60001 176.96249 182.325 187.6875 193.05"
         y="0"
         sodipodi:role="line"
         id="tspan3552">public scan() : PrimitiveLongIterator</tspan></text>
<text
       transform="matrix(1,0,0,-1,520.7305,531)"
       style="font-variant:normal;font-weight:normal;font-stretch:normal;font-size:10.5px;font-family:Arial;-inkscape-font-specification:ArialMT;writing-mode:lr-tb;fill:#303030;fill-opacity:1;fill-rule:nonzero;stroke:none"
       id="text3554"><tspan
         x="0 2.3310001 8.1689997 11.088 16.337999 18.669001 24.507 29.757"
         y="0"
         sodipodi:role="line"
         id="tspan3556">in class</tspan></text>
<g
       id="g3558"><g
         id="g3560"
         clip-path="url(#clipPath3562)"><g
           id="g3566"
           transform="translate(54.25,526.5)"><path
             d="m 0,0 305.25,0 c 1.657,0 3,-1.343 3,-3 l 0,-8.25 c 0,-1.657 -1.343,-3 -3,-3 L 0,-14.25 c -1.657,0 -3,1.343 -3,3 L -3,-3 c 0,1.657 1.343,3 3,3"
             style="fill:#f9f2f4;fill-opacity:1;fill-rule:nonzero;stroke:none"
             id="path3568"
             inkscape:connector-curvature="0" /></g></g></g><text
       transform="matrix(1,0,0,-1,54.25,516)"
       style="font-variant:normal;font-weight:normal;font-stretch:normal;font-size:9.75px;font-family:Consolas;-inkscape-font-specification:Consolas;writing-mode:lr-tb;fill:#c7254e;fill-opacity:1;fill-rule:nonzero;stroke:none"
       id="text3570"><tspan
         x="0 5.3625002 10.725 16.0875 21.450001 26.8125 32.174999 37.537498 42.900002 48.262501 53.625 58.987499 64.349998 69.712502 75.074997 80.4375 85.800003 91.162498 96.525002 101.8875 107.25 112.6125 117.975 123.3375 128.7 134.0625 139.425 144.78751 150.14999 155.5125 160.875 166.2375 171.60001 176.96249 182.325 187.6875 193.05 198.41251 203.77499 209.1375 214.5 219.8625 225.22501 230.58749 235.95 241.3125 246.675 252.03751 257.39999 262.76251 268.125 273.48749 278.85001 284.21249 289.57501 294.9375 300.29999"
         y="0"
         sodipodi:role="line"
         id="tspan3572">org.neo4j.kernel.api.impl.index.LuceneIndexAccessorReader</tspan></text>
<text
       transform="matrix(1,0,0,-1,21.25,48.75)"
       style="font-variant:normal;font-weight:normal;font-stretch:normal;font-size:13.5px;font-family:Arial;-inkscape-font-specification:ArialMT;writing-mode:lr-tb;fill:#303030;fill-opacity:1;fill-rule:nonzero;stroke:none"
       id="text3782"><tspan
         x="0"
         y="0"
         sodipodi:role="line"
         id="tspan3784" /><tspan
         x="402.74551 413.991 421.49701 425.25 428.24701 434.99701 442.50299 446.25601 449.25299 456.759 464.26501 468.01801 476.26651 483.77249 491.2785"
         y="-697.50452"
         sodipodi:role="line"
         id="tspan3786">Motivation Tags</tspan></text>
<g
       id="g3788"><g
         id="g3790"
         clip-path="url(#clipPath3792)"><g
           id="g3796"
           transform="translate(427.75,735)"><path
             d="m 0,0 114,0 c 2.071,0 3.75,-1.679 3.75,-3.75 l 0,-3.75 c 0,-2.071 -1.679,-3.75 -3.75,-3.75 l -114,0 c -2.071,0 -3.75,1.679 -3.75,3.75 l 0,3.75 C -3.75,-1.679 -2.071,0 0,0"
             style="fill:#337ab7;fill-opacity:1;fill-rule:nonzero;stroke:none"
             id="path3798"
             inkscape:connector-curvature="0" /></g></g></g><text
       transform="matrix(1,0,0,-1,427.75,726)"
       style="font-variant:normal;font-weight:normal;font-stretch:normal;font-size:10.5px;font-family:Arial;-inkscape-font-specification:ArialMT;writing-mode:lr-tb;fill:#ffffff;fill-opacity:1;fill-rule:nonzero;stroke:none"
       id="text3800"><tspan
         x="0 7.0035 15.75 18.669001 21.587999 29.169001 35.007 43.753502 49.591499 54.841499 60.679501 63.598499 69.436501 75.274498 81.112503 83.443497 85.774498 91.024498 96.862503 99.781502 102.1125 107.9505"
         y="0"
         sodipodi:role="line"
         id="tspan3802">EM: Remove duplication</tspan></text>
<g
       id="g3804"><g
         id="g3806"
         clip-path="url(#clipPath3808)"><g
           id="g3812"
           transform="translate(427.75,720)"><path
             d="m 0,0 164.25,0 0,-11.25 -164.25,0 c -2.071,0 -3.75,1.679 -3.75,3.75 l 0,3.75 C -3.75,-1.679 -2.071,0 0,0"
             style="fill:#337ab7;fill-opacity:1;fill-rule:nonzero;stroke:none"
             id="path3814"
             inkscape:connector-curvature="0" /></g></g></g><text
       transform="matrix(1,0,0,-1,427.75,711)"
       style="font-variant:normal;font-weight:normal;font-stretch:normal;font-size:10.5px;font-family:Arial;-inkscape-font-specification:ArialMT;writing-mode:lr-tb;fill:#ffffff;fill-opacity:1;fill-rule:nonzero;stroke:none"
       id="text3816"><tspan
         x="0 7.0035 14.007 16.926001 19.844999 26.848499 32.098499 35.017502 38.514 44.352001 49.602001 52.521 55.439999 60.689999 66.528 75.274498 84.021004 89.859001"
         y="0"
         sodipodi:role="line"
         id="tspan3818">ES: Extract common</tspan></text>
<g
       id="g3820"><g
         id="g3822"
         clip-path="url(#clipPath3824)"><g
           id="g3828"
           transform="translate(325,705)"><path
             d="m 0,0 164.25,0 c 2.071,0 3.75,-1.679 3.75,-3.75 l 0,-3.75 c 0,-2.071 -1.679,-3.75 -3.75,-3.75 L 0,-11.25 0,0 Z"
             style="fill:#337ab7;fill-opacity:1;fill-rule:nonzero;stroke:none"
             id="path3830"
             inkscape:connector-curvature="0" /></g></g></g><text
       transform="matrix(1,0,0,-1,424,696)"
       style="font-variant:normal;font-weight:normal;font-stretch:normal;font-size:10.5px;font-family:Arial;-inkscape-font-specification:ArialMT;writing-mode:lr-tb;fill:#ffffff;fill-opacity:1;fill-rule:nonzero;stroke:none"
       id="text3832"><tspan
         x="0 5.25 8.1689997 14.007 16.926001 22.764 25.683001 31.521 37.359001 43.196999 49.035 54.285 56.616001 62.453999"
         y="0"
         sodipodi:role="line"
         id="tspan3834">state/behavior</tspan></text>
<text
       transform="matrix(1,0,0,-1,424,672)"
       style="font-variant:normal;font-weight:normal;font-stretch:normal;font-size:13.5px;font-family:Arial;-inkscape-font-specification:ArialMT;writing-mode:lr-tb;fill:#303030;fill-opacity:1;fill-rule:nonzero;stroke:none"
       id="text3836"><tspan
         x="0 8.2484999 15.7545 23.2605 26.2575 30.0105 39.7575 46.5075 54.0135 61.519501 69.025497 72.778503 81.027 88.532997 96.039001"
         y="0"
         sodipodi:role="line"
         id="tspan3838">Tool Usage Tags</tspan></text>
<g
       id="g3840"><g
         id="g3842"
         clip-path="url(#clipPath3844)"><g
           id="g3848"
           transform="translate(427.75,660.75)"><path
             d="m 0,0 34.5,0 c 2.071,0 3.75,-1.679 3.75,-3.75 l 0,-3.75 c 0,-2.071 -1.679,-3.75 -3.75,-3.75 l -34.5,0 c -2.071,0 -3.75,1.679 -3.75,3.75 l 0,3.75 C -3.75,-1.679 -2.071,0 0,0"
             style="fill:#337ab7;fill-opacity:1;fill-rule:nonzero;stroke:none"
             id="path3850"
             inkscape:connector-curvature="0" /></g></g></g><text
       transform="matrix(1,0,0,-1,427.75,651.75)"
       style="font-variant:normal;font-weight:normal;font-stretch:normal;font-size:10.5px;font-family:Arial;-inkscape-font-specification:ArialMT;writing-mode:lr-tb;fill:#ffffff;fill-opacity:1;fill-rule:nonzero;stroke:none"
       id="text3852"><tspan
         x="0 8.7465 14.5845 20.422501 26.2605 32.098499"
         y="0"
         sodipodi:role="line"
         id="tspan3854">Manual</tspan></text>
<g
       id="g3856"><g
         id="g3858"
         clip-path="url(#clipPath3860)"><g
           id="g3864"
           transform="translate(427.75,645.75)"><path
             d="m 0,0 97.5,0 c 2.071,0 3.75,-1.679 3.75,-3.75 l 0,-3.75 c 0,-2.071 -1.679,-3.75 -3.75,-3.75 l -97.5,0 c -2.071,0 -3.75,1.679 -3.75,3.75 l 0,3.75 C -3.75,-1.679 -2.071,0 0,0"
             style="fill:#337ab7;fill-opacity:1;fill-rule:nonzero;stroke:none"
             id="path3866"
             inkscape:connector-curvature="0" /></g></g></g><text
       transform="matrix(1,0,0,-1,427.75,636.75)"
       style="font-variant:normal;font-weight:normal;font-stretch:normal;font-size:10.5px;font-family:Arial;-inkscape-font-specification:ArialMT;writing-mode:lr-tb;fill:#ffffff;fill-opacity:1;fill-rule:nonzero;stroke:none"
       id="text3868"><tspan
         x="0 8.7465 14.5845 20.422501 26.2605 32.098499 34.429501 37.348499 40.267502 46.105499 51.943501 57.193501 62.443501 65.362503 71.2005 74.119499 77.038498 79.957497 83.454002 89.292 94.542"
         y="0"
         sodipodi:role="line"
         id="tspan3870">manual: Lack of trust</tspan></text>
<g
       id="g3872"><g
         id="g3874"
         clip-path="url(#clipPath3876)"><g
           id="g3880"
           transform="translate(427.75,630.75)"><path
             d="m 0,0 63.75,0 c 2.071,0 3.75,-1.679 3.75,-3.75 l 0,-3.75 c 0,-2.071 -1.679,-3.75 -3.75,-3.75 l -63.75,0 c -2.071,0 -3.75,1.679 -3.75,3.75 l 0,3.75 C -3.75,-1.679 -2.071,0 0,0"
             style="fill:#337ab7;fill-opacity:1;fill-rule:nonzero;stroke:none"
             id="path3882"
             inkscape:connector-curvature="0" /></g></g></g><text
       transform="matrix(1,0,0,-1,427.75,621.75)"
       style="font-variant:normal;font-weight:normal;font-stretch:normal;font-size:10.5px;font-family:Arial;-inkscape-font-specification:ArialMT;writing-mode:lr-tb;fill:#ffffff;fill-opacity:1;fill-rule:nonzero;stroke:none"
       id="text3884"><tspan
         x="0 2.3310001 8.1689997 14.007 16.926001 19.844999 27.426001 33.264 38.514 44.352001 50.189999 57.771"
         y="0"
         sodipodi:role="line"
         id="tspan3886">ide: Unknown</tspan></text>
</g></svg>